<svg width="99" height="263" viewBox="0 0 99 263" fill="none" xmlns="http://www.w3.org/2000/svg">
<path d="M12.8785 72.7107L-5.30615 54.526L-5.30615 90.9232L12.8785 72.7107Z" fill="#2F3239"/>
<path d="M12.8785 127.237L-5.30615 109.052L-5.30615 145.422L12.8785 127.237Z" fill="#2F3239"/>
<path d="M12.8785 181.763L-5.30615 163.578L-5.30615 199.948L12.8785 181.763Z" fill="#2F3239"/>
<path d="M12.8785 236.289L-5.30615 218.105L-5.30615 254.474L12.8785 236.289Z" fill="#2F3239"/>
<path d="M68.5725 127.237L50.3601 109.052V145.422L68.5725 127.237Z" fill="#2F3239"/>
<path d="M68.5725 181.763L50.3601 163.578V199.948L68.5725 181.763Z" fill="#2F3239"/>
<path d="M40.7116 99.9879L22.527 81.8033L22.527 118.173L40.7116 99.9879Z" fill="#2F3239"/>
<path d="M40.7116 154.514L22.527 136.329L22.527 172.699L40.7116 154.514Z" fill="#2F3239"/>
<path d="M40.7116 209.04L22.527 190.855L22.527 227.225L40.7116 209.04Z" fill="#2F3239"/>
<path d="M98.3243 154.514L80.1396 136.329V172.698L98.3243 154.514Z" fill="#2F3239"/>
</svg>
