<svg width="166" height="39" viewBox="0 0 166 39" fill="none" xmlns="http://www.w3.org/2000/svg">
<path d="M164.522 20.4143C165.303 19.6332 165.303 18.3669 164.522 17.5858L151.794 4.85793C151.013 4.07688 149.747 4.07688 148.966 4.85793C148.185 5.63897 148.185 6.9053 148.966 7.68635L160.279 19.0001L148.966 30.3138C148.185 31.0948 148.185 32.3611 148.966 33.1422C149.747 33.9232 151.013 33.9232 151.794 33.1422L164.522 20.4143ZM-19.5 21.0001H163.108V17.0001H-19.5V21.0001Z" fill="#31353D"/>
<rect x="56.2817" y="6.28925" width="6.07902" height="37" transform="rotate(-29 56.2817 6.28925)" fill="#181A1E"/>
<rect x="86.6547" y="2.00006" width="6.07902" height="37" transform="rotate(20 86.6547 2.00006)" fill="#181A1E"/>
<rect x="101.655" y="1.00006" width="6.07902" height="37" transform="rotate(20 101.655 1.00006)" fill="#181A1E"/>
<rect x="105" y="2.07916" width="6.07902" height="37" transform="rotate(-20 105 2.07916)" fill="#181A1E"/>
</svg>
