<svg width="71" height="71" viewBox="0 0 71 71" fill="none" xmlns="http://www.w3.org/2000/svg">
<path d="M66.0921 35.8947C66.1483 35.2904 66.5066 34.7142 66.4444 34.1223C66.46 33.7018 66.0676 33.384 65.6595 33.4867C65.3168 33.6424 65.1828 34.0754 65.0363 34.39C64.9428 34.6392 65.0207 34.8105 65.2169 34.9694C65.1888 35.2716 65.1607 35.5737 65.251 35.8634C65.3008 36.3369 66.0889 36.4336 66.0921 35.8947Z" fill="#1D1E22"/>
<path d="M64.3517 30.1534C64.3424 29.4961 64.2678 28.7858 64.1402 28.141C64.0126 27.4961 63.8071 26.68 63.3492 26.3092C63.0876 26.0973 62.6919 26.3184 62.7822 26.6082C62.8444 27.2 63.3147 27.6892 63.4953 28.2686C63.7413 28.901 63.8035 29.4929 63.8782 30.2031C63.9685 30.4928 64.3766 30.3901 64.3517 30.1534Z" fill="#1D1E22"/>
<path d="M59.7361 23.8166C60.3653 24.1095 61.007 24.5208 61.5956 24.9975C61.7919 25.1564 62.0567 24.8293 61.8605 24.6704C61.0756 24.0348 59.8236 22.3712 58.6647 22.7323C58.4279 22.7572 58.4653 23.1124 58.5961 23.2183C58.9231 23.4831 59.3561 23.6171 59.7361 23.8166Z" fill="#1D1E22"/>
<path d="M54.2845 25.4667C55.0011 24.3142 55.5464 23.2396 56.8642 22.6822C57.0355 22.6044 56.9577 22.433 56.7864 22.5109C55.2724 22.9094 54.0449 23.7565 53.7331 25.3451C53.6521 25.7127 54.191 25.7159 54.2845 25.4667Z" fill="#1D1E22"/>
<path d="M53.8721 32.9304C54.0996 32.2482 54.025 31.538 54.0687 30.8153C54.1 29.9742 54.0783 29.1985 53.9912 28.3699C53.9663 28.1332 53.5458 28.1175 53.5177 28.4197C53.5924 29.1299 53.4832 29.7997 53.4395 30.5223C53.3958 31.245 53.1807 32.0456 53.2554 32.7558C53.2927 33.111 53.7911 33.2979 53.8721 32.9304Z" fill="#1D1E22"/>
<path d="M55.0328 41.1263C55.5283 39.5782 55.3168 37.5658 55.0896 35.974C54.9993 35.6843 54.6442 35.7216 54.6161 36.0238C54.6503 36.9178 54.6314 37.8772 54.5472 38.7837C54.5034 39.5064 54.3413 40.2415 54.416 40.9518C54.5187 41.3599 54.9393 41.3755 55.0328 41.1263Z" fill="#1D1E22"/>
<path d="M52.7388 48.9074C53.7576 47.783 54.2532 46.2349 54.7082 44.8706C54.8017 44.6214 54.4871 44.4749 54.3282 44.6712C53.7548 46.048 52.9852 47.2658 52.1502 48.4307C51.9507 48.8107 52.474 49.2345 52.7388 48.9074Z" fill="#1D1E22"/>
<path d="M47.0316 51.5419C47.6889 51.5326 48.4521 51.3926 49.0969 51.265C49.6234 51.1498 49.5488 50.4395 49.0098 50.4363C48.4179 50.4987 47.7607 50.5078 47.1034 50.517C46.446 50.5264 45.5926 50.3766 44.8948 50.5696C44.6051 50.6599 44.5894 51.0805 44.904 51.2269C45.4273 51.6507 46.3213 51.6165 47.0316 51.5419Z" fill="black"/>
<path d="M42.4932 49.9244C42.7548 50.1363 43.1255 49.6785 42.8639 49.4667C42.2627 48.8716 41.78 48.2641 41.2319 47.6035C40.7492 46.996 40.4254 46.1922 39.7713 45.6626C39.4442 45.3977 38.9426 45.7497 39.1637 46.1454C39.7989 47.6345 41.2629 49.0364 42.4932 49.9244Z" fill="#1D1E22"/>
<path d="M38.1645 41.7623C37.9715 41.0644 37.7784 40.3667 37.5855 39.6687C37.3394 39.0364 37.2523 38.2078 36.7821 37.7186C36.5205 37.5067 36.2432 37.7154 36.1497 37.9646C35.9752 38.5813 36.4049 39.2542 36.6385 39.7683C36.8969 40.519 37.2737 41.2574 37.5322 42.0082C37.7532 42.4039 38.2672 42.1704 38.1645 41.7623Z" fill="#1D1E22"/>
<path d="M36.038 34.6253C35.9914 33.6129 35.8389 32.7313 35.5681 31.8621C35.2972 30.993 34.8706 29.7812 34.0452 29.3293C33.6652 29.1299 33.3349 29.404 33.4377 29.8121C33.6307 30.5099 34.2318 31.105 34.5962 31.7249C35.1692 32.6222 35.5179 33.6627 35.7483 34.7156C35.7078 34.8994 36.0629 34.862 36.038 34.6253Z" fill="#1D1E22"/>
<path d="M32.6471 25.7063C32.6005 24.6938 32.3826 23.7593 31.9809 22.7842C31.5792 21.8091 31.0342 20.6096 30.1433 20.1049C29.8287 19.9584 29.5109 20.3509 29.6542 20.5752C29.9252 21.4444 30.7101 22.08 31.1523 22.8713C31.6598 23.7155 32.0087 24.7561 32.239 25.809C32.2639 26.0457 32.6844 26.0614 32.6471 25.7063Z" fill="#44CD7B"/>
<path d="M22.6927 17.537C23.325 17.291 23.839 17.0574 24.4963 17.0482C25.2844 17.1449 26.1752 17.6496 26.7639 18.1263C26.9602 18.2853 27.2251 17.9583 27.0287 17.7993C25.8919 16.6621 23.5217 15.1759 22.2098 16.9294C22.0634 17.244 22.3499 17.6926 22.6927 17.537Z" fill="#44CD7B"/>
<path d="M14.7889 22.6164C15.4368 21.95 15.8888 21.1246 16.4714 20.4052C17.2783 19.5422 18.2286 18.9039 19.3345 18.6081C19.5057 18.5302 19.3625 18.3059 19.2442 18.3184C17.0854 18.8445 14.6335 19.9999 13.9759 22.2832C13.9074 22.769 14.524 22.9435 14.7889 22.6164Z" fill="#44CD7B"/>
<path d="M14.7344 31.7779C14.8436 31.1081 14.7689 30.3979 14.8656 29.6098C14.9747 28.9401 15.2677 28.3107 15.626 27.7346C15.8255 27.3545 15.3676 26.9837 15.1027 27.3109C14.0839 28.4353 13.2581 30.2575 13.8404 31.812C13.9555 32.3386 14.6005 32.2109 14.7344 31.7779Z" fill="#44CD7B"/>
<path d="M16.4874 37.6377C16.3256 36.0988 16.1514 34.4416 15.5816 33.0054C15.4134 32.5443 14.8465 32.8433 14.9492 33.2514C15.2823 34.7124 14.983 36.4194 15.6711 37.8432C15.9452 38.1733 16.537 38.1111 16.4874 37.6377Z" fill="#44CD7B"/>
<path d="M12.4494 42.4904C13.0007 42.612 13.6861 42.3006 14.2001 42.067C14.7671 41.768 15.2561 41.2977 15.6799 40.7744C15.9447 40.4474 15.4869 40.0767 15.2221 40.4037C14.8513 40.8616 14.4026 41.148 13.8886 41.3816C13.4274 41.5498 12.8885 41.5466 12.4277 41.7147C12.0197 41.8175 12.0819 42.4092 12.4494 42.4904Z" fill="#44CD7B"/>
<path d="M6.72046 44.3491C8.96639 44.6516 11.1437 45.44 13.3491 45.9263C14.3864 46.1165 14.5798 44.5403 13.5955 44.2847C11.8107 43.8141 10.0133 43.225 8.13492 43.0036C8.54621 42.3619 8.9575 41.7203 9.42176 41.0132C9.56822 40.6986 9.93899 40.2408 9.83615 39.8326L9.82373 39.7144C9.82373 39.7144 9.87669 39.649 9.81129 39.596C9.7864 39.3593 9.41884 39.2782 9.3129 39.4091C9.19453 39.4215 9.14147 39.487 9.03563 39.6177C8.70541 39.892 8.50596 40.2718 8.18816 40.6643C7.565 41.5675 6.99492 42.4055 6.24084 43.2027C5.85771 43.5421 6.16911 44.2275 6.72046 44.3491Z" fill="#44CD7B"/>
</svg>
