<svg width="45" height="50" viewBox="0 0 45 50" fill="none" xmlns="http://www.w3.org/2000/svg">
<path d="M20.7921 27.8865H23.7551C24.1598 27.8865 24.4879 27.5584 24.4879 27.1538C24.4879 26.7491 24.1598 26.421 23.7551 26.421H20.7921C20.3874 26.421 20.0593 26.7491 20.0593 27.1538C20.0593 27.5584 20.3873 27.8865 20.7921 27.8865Z" fill="#4AFFA8"/>
<path d="M18.9269 9.18865C18.6192 8.92592 18.1566 8.96227 17.8937 9.26994L10.2836 18.1799C10.0208 18.4877 10.0572 18.9502 10.3649 19.2131C10.503 19.331 10.6722 19.3886 10.8406 19.3886C11.0475 19.3886 11.2532 19.3014 11.3982 19.1318L19.0083 10.2218C19.271 9.91402 19.2345 9.45148 18.9269 9.18865V9.18865Z" fill="#4AFFA8"/>
<path d="M10.3539 14.5112C10.4935 14.6353 10.6673 14.6963 10.8404 14.6963C11.0425 14.6963 11.2437 14.6133 11.3884 14.4504L13.4454 12.1362C13.7143 11.8337 13.687 11.3706 13.3845 11.1017C13.0819 10.8328 12.6188 10.8601 12.35 11.1626L10.293 13.4768C10.0242 13.7792 10.0515 14.2423 10.3539 14.5112Z" fill="#4AFFA8"/>
<path d="M40.421 40.9131C40.2215 40.2839 39.6441 39.8611 38.984 39.8611H14.1925C13.7878 39.8611 13.4598 40.1892 13.4598 40.5939C13.4598 40.9986 13.7878 41.3267 14.1925 41.3267H38.9841C39.0025 41.3267 39.0186 41.3385 39.0241 41.3559L41.2819 48.4799C41.2842 48.4869 41.2883 48.5001 41.2758 48.5173C41.2633 48.5344 41.2494 48.5344 41.242 48.5344H3.3051C3.29768 48.5344 3.2839 48.5344 3.2713 48.5173C3.25879 48.5001 3.26289 48.4869 3.26514 48.4799L5.52302 41.3559C5.52859 41.3384 5.54461 41.3267 5.56298 41.3267H10.8847C11.2894 41.3267 11.6175 40.9986 11.6175 40.5939C11.6175 40.1892 11.2894 39.8611 10.8847 39.8611H5.56308C4.90298 39.8611 4.32544 40.2839 4.12603 40.9131L1.86814 48.0371C1.72129 48.5003 1.8017 48.9909 2.08876 49.383C2.37582 49.7751 2.81921 50 3.3051 50H41.2419C41.7279 50 42.1712 49.7751 42.4582 49.383C42.7453 48.9909 42.8257 48.5003 42.6788 48.0371L40.421 40.9131Z" fill="#4AFFA8"/>
<path d="M41.6166 0H2.93049C1.31463 0 0 1.31463 0 2.93049V27.7492C0 29.3651 1.31463 30.6797 2.93049 30.6797H17.3193C17.269 32.1519 17.1244 34.5947 16.8089 35.9643H13.6548C13.2501 35.9643 12.922 36.2924 12.922 36.6971C12.922 37.1018 13.2501 37.4299 13.6548 37.4299H30.8925C31.2972 37.4299 31.6253 37.1018 31.6253 36.6971C31.6253 36.2924 31.2972 35.9643 30.8925 35.9643H27.7383C27.4229 34.5947 27.2783 32.1519 27.2279 30.6797H41.6168C43.2326 30.6797 44.5472 29.3651 44.5472 27.7492V2.93049C44.547 1.31463 43.2324 0 41.6166 0V0ZM18.3052 35.9643C18.6285 34.3078 18.7454 31.8804 18.7853 30.6797H25.7617C25.8015 31.8804 25.9185 34.3078 26.2418 35.9643H18.3052ZM43.0815 27.7492C43.0815 28.5569 42.4243 29.2141 41.6166 29.2141H2.93049C2.12275 29.2141 1.46558 28.5569 1.46558 27.7492V25.0935H43.0816V27.7492H43.0815ZM43.0815 23.6279H41.1565V12.8113C41.1565 12.4066 40.8284 12.0785 40.4237 12.0785C40.019 12.0785 39.6909 12.4066 39.6909 12.8113V23.6279H4.85617V4.96755C4.85617 4.86076 4.94303 4.7739 5.04982 4.7739H39.4972C39.604 4.7739 39.6909 4.86076 39.6909 4.96755V9.4583C39.6909 9.863 40.019 10.1911 40.4237 10.1911C40.8284 10.1911 41.1565 9.863 41.1565 9.4583V4.96755C41.1565 4.05264 40.4121 3.30831 39.4972 3.30831H5.04982C4.1349 3.30831 3.39058 4.05264 3.39058 4.96755V23.6279H1.46558V2.93049C1.46558 2.12275 2.12275 1.46559 2.93049 1.46559H41.6166C42.4243 1.46559 43.0815 2.12275 43.0815 2.93049V23.6279Z" fill="#4AFFA8"/>
<path d="M10.8848 42.8865H9.89045C9.48575 42.8865 9.15765 43.2146 9.15765 43.6193C9.15765 44.024 9.48575 44.3521 9.89045 44.3521H10.8848C11.2895 44.3521 11.6176 44.024 11.6176 43.6193C11.6176 43.2146 11.2895 42.8865 10.8848 42.8865Z" fill="#4AFFA8"/>
<path d="M13.8679 44.3521H14.8622C15.2669 44.3521 15.595 44.024 15.595 43.6193C15.595 43.2146 15.2669 42.8865 14.8622 42.8865H13.8679C13.4632 42.8865 13.1351 43.2146 13.1351 43.6193C13.1351 44.024 13.4632 44.3521 13.8679 44.3521Z" fill="#4AFFA8"/>
<path d="M17.8452 44.3521H18.8396C19.2443 44.3521 19.5724 44.024 19.5724 43.6193C19.5724 43.2146 19.2443 42.8865 18.8396 42.8865H17.8452C17.4406 42.8865 17.1125 43.2146 17.1125 43.6193C17.1125 44.024 17.4406 44.3521 17.8452 44.3521Z" fill="#4AFFA8"/>
<path d="M21.8228 44.3521H22.8171C23.2218 44.3521 23.5499 44.024 23.5499 43.6193C23.5499 43.2146 23.2218 42.8865 22.8171 42.8865H21.8228C21.4181 42.8865 21.09 43.2146 21.09 43.6193C21.09 44.024 21.4181 44.3521 21.8228 44.3521V44.3521Z" fill="#4AFFA8"/>
<path d="M25.8002 44.3521H26.7945C27.1992 44.3521 27.5273 44.024 27.5273 43.6193C27.5273 43.2146 27.1992 42.8865 26.7945 42.8865H25.8002C25.3955 42.8865 25.0674 43.2146 25.0674 43.6193C25.0674 44.024 25.3955 44.3521 25.8002 44.3521Z" fill="#4AFFA8"/>
<path d="M29.7777 44.3521H30.772C31.1767 44.3521 31.5048 44.024 31.5048 43.6193C31.5048 43.2146 31.1767 42.8865 30.772 42.8865H29.7777C29.373 42.8865 29.0449 43.2146 29.0449 43.6193C29.0449 44.024 29.373 44.3521 29.7777 44.3521Z" fill="#4AFFA8"/>
<path d="M33.6624 44.3521H34.6567C35.0614 44.3521 35.3895 44.024 35.3895 43.6193C35.3895 43.2146 35.0614 42.8865 34.6567 42.8865H33.6624C33.2577 42.8865 32.9296 43.2146 32.9296 43.6193C32.9296 44.024 33.2577 44.3521 33.6624 44.3521Z" fill="#4AFFA8"/>
<path d="M10.8848 45.5092H9.89045C9.48575 45.5092 9.15765 45.8373 9.15765 46.2419C9.15765 46.6466 9.48575 46.9747 9.89045 46.9747H10.8848C11.2895 46.9747 11.6176 46.6466 11.6176 46.2419C11.6176 45.8373 11.2895 45.5092 10.8848 45.5092Z" fill="#4AFFA8"/>
<path d="M13.8679 46.9747H14.8622C15.2669 46.9747 15.595 46.6466 15.595 46.2419C15.595 45.8373 15.2669 45.5092 14.8622 45.5092H13.8679C13.4632 45.5092 13.1351 45.8373 13.1351 46.2419C13.1351 46.6466 13.4632 46.9747 13.8679 46.9747Z" fill="#4AFFA8"/>
<path d="M17.8452 46.9747H18.8396C19.2443 46.9747 19.5724 46.6466 19.5724 46.2419C19.5724 45.8373 19.2443 45.5092 18.8396 45.5092H17.8452C17.4406 45.5092 17.1125 45.8373 17.1125 46.2419C17.1125 46.6466 17.4406 46.9747 17.8452 46.9747Z" fill="#4AFFA8"/>
<path d="M21.8228 46.9747H22.8171C23.2218 46.9747 23.5499 46.6466 23.5499 46.2419C23.5499 45.8373 23.2218 45.5092 22.8171 45.5092H21.8228C21.4181 45.5092 21.09 45.8373 21.09 46.2419C21.09 46.6466 21.4181 46.9747 21.8228 46.9747V46.9747Z" fill="#4AFFA8"/>
<path d="M25.8002 46.9747H26.7945C27.1992 46.9747 27.5273 46.6466 27.5273 46.2419C27.5273 45.8373 27.1992 45.5092 26.7945 45.5092H25.8002C25.3955 45.5092 25.0674 45.8373 25.0674 46.2419C25.0674 46.6466 25.3955 46.9747 25.8002 46.9747Z" fill="#4AFFA8"/>
<path d="M29.7777 46.9747H30.772C31.1767 46.9747 31.5048 46.6466 31.5048 46.2419C31.5048 45.8373 31.1767 45.5092 30.772 45.5092H29.7777C29.373 45.5092 29.0449 45.8373 29.0449 46.2419C29.0449 46.6466 29.373 46.9747 29.7777 46.9747Z" fill="#4AFFA8"/>
<path d="M33.6624 46.9747H34.6567C35.0614 46.9747 35.3895 46.6466 35.3895 46.2419C35.3895 45.8373 35.0614 45.5092 34.6567 45.5092H33.6624C33.2577 45.5092 32.9296 45.8373 32.9296 46.2419C32.9296 46.6466 33.2577 46.9747 33.6624 46.9747Z" fill="#4AFFA8"/>
</svg>
