<svg width="20" height="22" viewBox="0 0 20 22" fill="none" xmlns="http://www.w3.org/2000/svg">
<path d="M7.99999 7.6C11.9768 7.6 15.2 5.9884 15.2 4C15.2 2.0116 11.9768 0.400002 7.99999 0.400002C4.02319 0.400002 0.799988 2.0116 0.799988 4C0.799988 5.9884 4.02319 7.6 7.99999 7.6ZM13.628 7.6192C14.192 7.3372 14.7404 6.9784 15.2 6.544V10.1308C14.3506 10.1972 13.5532 10.5659 12.9524 11.17L12.2324 11.89C11.9952 12.1274 11.811 12.4124 11.6918 12.7262C11.5727 13.0399 11.5214 13.3754 11.5412 13.7104C11.2058 13.6902 10.8698 13.7413 10.5556 13.8604C10.2414 13.9796 9.95606 14.164 9.71839 14.4016L8.99839 15.1216C8.55211 15.5675 8.23144 16.1234 8.06878 16.7329C7.90612 17.3425 7.90722 17.9842 8.07199 18.5932L7.15999 19.51C7.1395 19.5303 7.1195 19.5511 7.09999 19.5724C3.54799 19.3504 0.799988 17.836 0.799988 16V6.544C1.25959 6.9784 1.80799 7.3372 2.37199 7.6192C3.87439 8.3704 5.86639 8.8 7.99999 8.8C10.1336 8.8 12.1256 8.3704 13.628 7.6192ZM19.0376 11.0248C19.0934 10.9691 19.1376 10.9029 19.1679 10.8301C19.1981 10.7573 19.2137 10.6793 19.2137 10.6004C19.2138 10.5216 19.1983 10.4435 19.1682 10.3707C19.1381 10.2978 19.0939 10.2316 19.0382 10.1758C18.9825 10.12 18.9163 10.0757 18.8435 10.0455C18.7707 10.0153 18.6926 9.99972 18.6138 9.99967C18.535 9.99961 18.4569 10.0151 18.384 10.0452C18.3112 10.0753 18.245 10.1195 18.1892 10.1752L16.766 11.5984C16.7509 11.6189 16.7369 11.6401 16.724 11.662C16.266 11.3887 15.73 11.2757 15.2007 11.3409C14.6713 11.4061 14.1788 11.6457 13.8008 12.022L13.0808 12.742C12.8605 12.9627 12.7368 13.2618 12.7368 13.5736C12.7368 13.8854 12.8605 14.1845 13.0808 14.4052L14.8112 16.132C15.0319 16.3526 15.3313 16.4766 15.6434 16.4766C15.9555 16.4766 16.2548 16.3526 16.4756 16.132L17.1956 15.412C17.5722 15.0339 17.812 14.5412 17.8772 14.0115C17.9424 13.4819 17.8292 12.9457 17.5556 12.4876C17.578 12.4755 17.5993 12.4614 17.6192 12.4456L19.0376 11.0248ZM12.2324 15.25C12.1232 15.1408 11.9935 15.0542 11.8509 14.995C11.7082 14.9359 11.5552 14.9055 11.4008 14.9055C11.2463 14.9055 11.0934 14.9359 10.9507 14.995C10.808 15.0542 10.6784 15.1408 10.5692 15.25L9.84919 15.97C9.47262 16.3481 9.23279 16.8408 9.16759 17.3705C9.1024 17.9001 9.21556 18.4363 9.48919 18.8944C9.46696 18.9068 9.4457 18.9208 9.42559 18.9364L8.00719 20.3584C7.89789 20.4716 7.83742 20.6231 7.83878 20.7804C7.84015 20.9378 7.90325 21.0882 8.0145 21.1995C8.12574 21.3107 8.27623 21.3738 8.43355 21.3752C8.59087 21.3766 8.74243 21.3161 8.85559 21.2068L10.2776 19.7836C10.2933 19.7633 10.3078 19.7421 10.3208 19.72C10.7788 19.9933 11.3148 20.1063 11.8441 20.0411C12.3735 19.9759 12.866 19.7363 13.244 19.36L13.964 18.64C14.0734 18.5308 14.1602 18.4011 14.2194 18.2583C14.2786 18.1155 14.3091 17.9624 14.3091 17.8078C14.3091 17.6532 14.2786 17.5001 14.2194 17.3573C14.1602 17.2145 14.0734 17.0848 13.964 16.9756L12.2324 15.25Z" fill="#44CD7B"/>
</svg>
