<svg width="34" height="36" viewBox="0 0 34 36" fill="none" xmlns="http://www.w3.org/2000/svg">
<path d="M17 3.5769C8.9411 3.5769 2.38464 10.1334 2.38464 18.1923C2.38464 26.2513 8.9411 32.8077 17 32.8077C25.059 32.8077 31.6154 26.2513 31.6154 18.1923C31.6154 10.1334 25.059 3.5769 17 3.5769ZM17 32.0384C9.36526 32.0384 3.15387 25.8271 3.15387 18.1923C3.15387 10.5575 9.36526 4.34614 17 4.34614C24.6348 4.34614 30.8462 10.5575 30.8462 18.1923C30.8462 25.8271 24.6348 32.0384 17 32.0384Z" fill="#4AFFA8"/>
<path d="M17 7.4231C11.0619 7.4231 6.23077 12.2542 6.23077 18.1923C6.23077 24.1305 11.0619 28.9616 17 28.9616C22.9382 28.9616 27.7692 24.1305 27.7692 18.1923C27.7692 12.2542 22.9382 7.4231 17 7.4231ZM17 28.1923C11.486 28.1923 7 23.7064 7 18.1923C7 12.6783 11.486 8.19233 17 8.19233C22.5141 8.19233 27 12.6783 27 18.1923C27 23.7064 22.5141 28.1923 17 28.1923Z" fill="#4AFFA8"/>
<path d="M30.8461 6.65384C32.1186 6.65384 33.1538 5.61861 33.1538 4.34614C33.1538 3.07368 32.1186 2.03845 30.8461 2.03845C29.5737 2.03845 28.5385 3.07368 28.5385 4.34614C28.5385 5.61861 29.5737 6.65384 30.8461 6.65384ZM30.8461 2.80768C31.6945 2.80768 32.3846 3.49784 32.3846 4.34614C32.3846 5.19445 31.6945 5.88461 30.8461 5.88461C29.9978 5.88461 29.3077 5.19445 29.3077 4.34614C29.3077 3.49784 29.9978 2.80768 30.8461 2.80768Z" fill="#4AFFA8"/>
<path d="M3.53847 29.3462C1.84186 29.3462 0.461548 30.7265 0.461548 32.4231C0.461548 34.1197 1.84186 35.5 3.53847 35.5C5.23509 35.5 6.61539 34.1197 6.61539 32.4231C6.61539 30.7265 5.23509 29.3462 3.53847 29.3462ZM3.53847 34.7308C2.26601 34.7308 1.23078 33.6956 1.23078 32.4231C1.23078 31.1507 2.26601 30.1154 3.53847 30.1154C4.81093 30.1154 5.84616 31.1507 5.84616 32.4231C5.84616 33.6956 4.81093 34.7308 3.53847 34.7308Z" fill="#4AFFA8"/>
<path d="M7.96157 2.03849C8.28019 2.03849 8.53849 1.78019 8.53849 1.46157C8.53849 1.14294 8.28019 0.884644 7.96157 0.884644C7.64294 0.884644 7.38464 1.14294 7.38464 1.46157C7.38464 1.78019 7.64294 2.03849 7.96157 2.03849Z" fill="#4AFFA8"/>
<path d="M1.03847 8.96159C1.3571 8.96159 1.61539 8.70329 1.61539 8.38466C1.61539 8.06604 1.3571 7.80774 1.03847 7.80774C0.719845 7.80774 0.461548 8.06604 0.461548 8.38466C0.461548 8.70329 0.719845 8.96159 1.03847 8.96159Z" fill="#4AFFA8"/>
<path d="M32.9616 10.1154C33.2802 10.1154 33.5385 9.8571 33.5385 9.53847C33.5385 9.21985 33.2802 8.96155 32.9616 8.96155C32.6429 8.96155 32.3846 9.21985 32.3846 9.53847C32.3846 9.8571 32.6429 10.1154 32.9616 10.1154Z" fill="#4AFFA8"/>
<path d="M32.9616 26.2692C33.2802 26.2692 33.5385 26.0109 33.5385 25.6923C33.5385 25.3737 33.2802 25.1154 32.9616 25.1154C32.6429 25.1154 32.3846 25.3737 32.3846 25.6923C32.3846 26.0109 32.6429 26.2692 32.9616 26.2692Z" fill="#4AFFA8"/>
<path d="M27.9616 33.1923C28.2802 33.1923 28.5385 32.934 28.5385 32.6154C28.5385 32.2967 28.2802 32.0385 27.9616 32.0385C27.6429 32.0385 27.3846 32.2967 27.3846 32.6154C27.3846 32.934 27.6429 33.1923 27.9616 33.1923Z" fill="#4AFFA8"/>
<path d="M11.0385 34.7308C11.3571 34.7308 11.6154 34.4725 11.6154 34.1538C11.6154 33.8352 11.3571 33.5769 11.0385 33.5769C10.7198 33.5769 10.4615 33.8352 10.4615 34.1538C10.4615 34.4725 10.7198 34.7308 11.0385 34.7308Z" fill="#4AFFA8"/>
<path d="M1.42311 26.2692C1.74174 26.2692 2.00004 26.0109 2.00004 25.6923C2.00004 25.3737 1.74174 25.1154 1.42311 25.1154C1.10449 25.1154 0.846191 25.3737 0.846191 25.6923C0.846191 26.0109 1.10449 26.2692 1.42311 26.2692Z" fill="#4AFFA8"/>
<path d="M16.8849 14.3478C17.9557 14.3168 18.9634 14.7184 19.7164 15.4702C20.399 16.1518 21.4936 16.1658 22.1727 15.4865L22.1801 15.4791C22.8503 14.8091 22.8544 13.7182 22.1893 13.0474C20.8149 11.661 18.9833 10.8929 17.032 10.8846L17.0005 10.8845C13.0265 10.8845 9.74842 14.1161 9.69311 18.0882C9.66565 20.0607 10.4127 21.9198 11.7967 23.3232C14.6583 26.225 19.3166 26.2219 22.1777 23.3488C22.8507 22.6731 22.8518 21.5769 22.179 20.904L22.1726 20.8977C21.4977 20.2227 20.4033 20.2218 19.73 20.9007C19.0026 21.6343 18.033 22.0384 17.0002 22.0384C14.853 22.0384 13.1243 20.2856 13.1543 18.1371C13.1826 16.1068 14.8562 14.4069 16.8849 14.3478ZM13.7136 21.4328C15.5191 23.2638 18.4655 23.2681 20.2762 21.4424C20.6422 21.0734 21.248 21.0611 21.6298 21.443L21.6362 21.4493C22.0085 21.8216 22.0068 22.4302 21.6326 22.8061C19.0649 25.3848 14.897 25.3717 12.3443 22.7832C11.106 21.5276 10.4377 19.8641 10.4622 18.099C10.5117 14.5451 13.4447 11.6538 17.0004 11.6538L17.0286 11.6539C18.7744 11.6614 20.4132 12.3486 21.643 13.589C22.0107 13.9599 22.0076 14.5638 21.6361 14.9353C21.6257 14.9423 21.3891 15.2192 20.961 15.2192C20.6983 15.2192 20.4493 15.1151 20.26 14.9259C18.4645 13.1332 15.5372 13.1088 13.716 14.9587C11.9207 16.7824 11.9601 19.6547 13.7136 21.4328Z" fill="#4AFFA8"/>
</svg>
