<svg width="30" height="30" viewBox="0 0 30 30" fill="none" xmlns="http://www.w3.org/2000/svg">
<g clip-path="url(#clip0_78_574)">
<path d="M1.8375 24.1875L20.325 5.7C20.1187 5.64375 19.9125 5.625 19.6875 5.625H2.8125C1.25625 5.625 0 6.88125 0 8.4375V21.5625C0 22.7812 0.76875 23.8125 1.8375 24.1875Z" fill="#44CD7B"/>
<path d="M28.6498 7.59382L22.4998 10.6688V8.8257L29.7261 1.59945C30.0917 1.23382 30.0917 0.639447 29.7261 0.273822C29.3604 -0.091803 28.7661 -0.091803 28.4004 0.273822L0.275439 28.3988C-0.0901856 28.7644 -0.0901856 29.3588 0.275439 29.7244C0.641065 30.0901 1.23544 30.0901 1.60106 29.7244L6.95044 24.3751H19.6873C21.2436 24.3751 22.4998 23.1188 22.4998 21.5626V19.3313L28.6498 22.4063C28.9967 22.5544 29.3173 22.5151 29.5498 22.3688C29.8311 22.1813 29.9998 21.8813 29.9998 21.5626V8.43757C29.9998 8.11882 29.8311 7.81882 29.5498 7.63132C29.2873 7.46257 28.9311 7.44382 28.6498 7.59382Z" fill="#44CD7B"/>
</g>
<defs>
<clipPath id="clip0_78_574">
<rect width="30" height="30" fill="white"/>
</clipPath>
</defs>
</svg>
