<svg width="22" height="22" viewBox="0 0 22 22" fill="none" xmlns="http://www.w3.org/2000/svg">
<path d="M12.1375 8.60584L8.83333 6.12501V15.875L12.1375 13.3942L15.3333 11L12.1375 8.60584ZM12.1375 8.60584L8.83333 6.12501V15.875L12.1375 13.3942L15.3333 11L12.1375 8.60584ZM12.1375 8.60584L8.83333 6.12501V15.875L12.1375 13.3942L15.3333 11L12.1375 8.60584ZM9.91666 2.40917V0.22084C7.73916 0.437507 5.75666 1.30417 4.15333 2.61501L5.69166 4.16417C6.91577 3.20855 8.37574 2.60211 9.91666 2.40917ZM4.16416 5.69167L2.61499 4.15334C1.26604 5.79631 0.433057 7.80149 0.220825 9.91667H2.40916C2.60416 8.33501 3.23249 6.89417 4.16416 5.69167ZM2.40916 12.0833H0.220825C0.437492 14.2608 1.30416 16.2433 2.61499 17.8467L4.16416 16.2975C3.20688 15.0785 2.60012 13.6215 2.40916 12.0833ZM4.15333 19.385C5.79737 20.7322 7.80199 21.5649 9.91666 21.7792V19.5908C8.37574 19.3979 6.91577 18.7915 5.69166 17.8358L4.15333 19.385ZM21.8333 11C21.8333 16.59 17.5867 21.205 12.1375 21.7792V19.5908C16.3842 19.0275 19.6667 15.3875 19.6667 11C19.6667 6.61251 16.3842 2.97251 12.1375 2.40917V0.22084C17.5867 0.795007 21.8333 5.41001 21.8333 11Z" fill="black"/>
</svg>
