<svg width="22" height="24" viewBox="0 0 22 24" fill="none" xmlns="http://www.w3.org/2000/svg">
<path d="M2.32822 12C2.32822 8.34946 4.57311 5.2685 7.68505 3.98216H7.68551L8.68395 2.18872C4.27709 3.21969 0.921967 7.18836 0.921967 12C0.921967 16.5278 3.91667 20.3924 8.08062 21.6482L8.18656 20.2054C4.72484 19.0201 2.32822 15.7464 2.32822 12Z" fill="#24D375"/>
<path d="M13.9193 2.35181L13.8134 3.79462C17.2751 4.9799 19.6718 8.2536 19.6718 12C19.6718 15.647 17.4295 18.7304 14.3149 20.0179H14.3145L13.316 21.8113C17.7229 20.7803 21.078 16.8117 21.078 12C21.078 7.47229 18.0833 3.60754 13.9193 2.35181Z" fill="#24D375"/>
<path d="M17.6998 10.3363C17.5736 10.1215 17.3429 9.9895 17.0937 9.9895H11.9488L12.6266 0.754706C12.6507 0.42569 12.4429 0.124143 12.1269 0.0295963C11.8108 -0.0651381 11.4716 0.0728619 11.3111 0.361096L4.29205 12.9652C4.17078 13.183 4.17388 13.4486 4.30016 13.6636C4.42644 13.8784 4.65711 14.0104 4.90634 14.0104H10.0512L9.37344 23.2452C9.3493 23.5743 9.55709 23.8758 9.87317 23.9703C10.1918 24.0657 10.5299 23.9246 10.689 23.6388L17.708 11.0347C17.8292 10.8169 17.8261 10.5513 17.6998 10.3363Z" fill="#24D375"/>
</svg>
