<svg width="24" height="24" viewBox="0 0 24 24" fill="none" xmlns="http://www.w3.org/2000/svg">
<g clip-path="url(#clip0_67_109)">
<path d="M22.7996 15.7568V13.8463C22.7996 13.515 22.531 13.2464 22.1996 13.2464H19.1998V10.8465H22.1996C22.531 10.8465 22.7996 10.5778 22.7996 10.2464V8.33608C23.7368 8.00466 24.2279 6.97634 23.8966 6.03902C23.5652 5.10188 22.5369 4.61079 21.5996 4.94203C20.6624 5.27345 20.1713 6.30177 20.5026 7.23909C20.6838 7.75161 21.087 8.15481 21.5996 8.33608V9.64657H19.1998V7.84664C19.1998 7.51522 18.9312 7.2466 18.5997 7.2466H16.7998V4.84663C16.7998 2.19581 14.6509 0.046875 12 0.046875C9.34904 0.046875 7.20011 2.19581 7.20011 4.84663V7.2466H5.40036C5.06894 7.2466 4.80032 7.51522 4.80032 7.84646V9.64639H2.40035V8.33608C3.33767 8.00466 3.82876 6.97615 3.49734 6.03902C3.1661 5.10188 2.13759 4.61061 1.20046 4.94203C0.26332 5.27327 -0.227953 6.30177 0.103469 7.23891C0.284744 7.75161 0.687943 8.15481 1.20046 8.33608V10.2464C1.20046 10.5778 1.46907 10.8465 1.80049 10.8465H4.80032V13.2462H1.80049C1.46907 13.2462 1.20046 13.5149 1.20046 13.8463V15.7566C0.263137 16.0881 -0.227953 17.1164 0.103469 18.0537C0.434707 18.9908 1.46321 19.4819 2.40035 19.1507C3.33767 18.8193 3.82876 17.7909 3.49752 16.8536C3.31625 16.3411 2.91305 15.9379 2.40035 15.7566V14.4461H4.80032V17.4462C4.80032 17.7774 5.06894 18.046 5.40036 18.046H9.60007V21.6459H8.28959C7.95835 20.7087 6.92984 20.2175 5.9927 20.5489C5.05539 20.8803 4.5643 21.9086 4.89572 22.8459C5.22696 23.7831 6.25546 24.2742 7.1926 23.9429C7.70529 23.7617 8.10831 23.3585 8.28959 22.8459H10.2001C10.5314 22.8459 10.8 22.5773 10.8 22.2459V18.0462H13.1999V22.2459C13.1999 22.5773 13.4686 22.8459 13.7998 22.8459H15.7103C16.0416 23.7831 17.0701 24.2742 18.0072 23.9429C18.9445 23.6115 19.4356 22.5832 19.1042 21.6459C18.773 20.7087 17.7444 20.2175 16.8073 20.5489C16.2946 20.7302 15.8916 21.1334 15.7103 21.6459H14.3998V18.046H18.5995C18.931 18.046 19.1996 17.7774 19.1996 17.4462V14.4461H21.5996V15.7566C20.6622 16.0881 20.1711 17.1164 20.5024 18.0537C20.8338 18.9908 21.8623 19.4819 22.7994 19.1507C23.7368 18.8193 24.2279 17.7909 23.8964 16.8536C23.7153 16.3411 23.3121 15.9379 22.7996 15.7568V15.7568ZM22.1996 6.04652C22.531 6.04652 22.7996 6.31514 22.7996 6.64656C22.7996 6.97798 22.531 7.2466 22.1996 7.2466C21.8684 7.2466 21.5997 6.97798 21.5997 6.64656C21.6001 6.31532 21.8685 6.04707 22.1996 6.04652ZM1.80049 6.04652C2.13173 6.04652 2.40035 6.31514 2.40035 6.64656C2.40035 6.97798 2.13173 7.2466 1.80049 7.2466C1.46907 7.2466 1.20046 6.97798 1.20046 6.64656C1.20064 6.31532 1.46907 6.04671 1.80049 6.04652ZM1.80049 18.0462C1.46907 18.0462 1.20046 17.7776 1.20046 17.4462C1.20046 17.1149 1.46907 16.8463 1.80049 16.8463C2.13173 16.8463 2.40035 17.1149 2.40035 17.4462C2.40017 17.7774 2.13173 18.046 1.80049 18.0462ZM6.60025 22.8459C6.26883 22.8459 6.00021 22.5773 6.00021 22.2459C6.00021 21.9147 6.26883 21.6461 6.60025 21.6461C6.93167 21.6461 7.20029 21.9147 7.20029 22.2459C7.20011 22.5773 6.93149 22.8458 6.60025 22.8459ZM17.3998 21.6461C17.7311 21.6461 17.9997 21.9147 17.9997 22.2459C17.9997 22.5773 17.7311 22.8459 17.3998 22.8459C17.0684 22.8459 16.7998 22.5773 16.7998 22.2459C16.8002 21.9149 17.0686 21.6464 17.3998 21.6461ZM8.40018 4.84663C8.40018 2.85847 10.0119 1.24677 12 1.24677C13.9882 1.24677 15.5999 2.85847 15.5999 4.84663V7.2466H8.40018V4.84663ZM17.9999 16.8461H6.00021V8.44649H17.9997V16.8461H17.9999ZM22.1996 18.0462C21.8684 18.0462 21.5997 17.7776 21.5997 17.4462C21.5997 17.1149 21.8684 16.8463 22.1996 16.8463C22.531 16.8463 22.7996 17.1149 22.7996 17.4462C22.7991 17.7774 22.5308 18.0458 22.1996 18.0462V18.0462Z" fill="#24D375"/>
<path d="M12 10.8464C11.6686 10.8464 11.4 11.1151 11.4 11.4463V13.8463C11.4 14.1777 11.6686 14.4463 12 14.4463C12.3313 14.4463 12.5999 14.1777 12.5999 13.8463V11.4463C12.6001 11.1151 12.3315 10.8464 12 10.8464V10.8464Z" fill="#24D375"/>
</g>
<defs>
<clipPath id="clip0_67_109">
<rect width="24" height="24" fill="white"/>
</clipPath>
</defs>
</svg>
