<svg width="174" height="50" viewBox="0 0 174 50" fill="none" xmlns="http://www.w3.org/2000/svg">
<path d="M0 23.2051C0 28.1211 1.52361 32.8007 4.33856 36.7145C6.78586 40.7319 10.3858 44.0841 14.7625 46.421C19.1393 48.7579 24.1324 49.9939 29.2206 50C29.7848 49.9844 30.3485 49.9537 30.9108 49.9079C31.4738 49.9475 32.0381 49.9749 32.6029 49.9903C41.034 49.9902 49.1198 47.2952 55.0815 42.498C61.0432 37.7007 64.3925 31.1943 64.3925 24.41C64.3828 23.0732 64.243 21.7391 63.9742 20.4199C63.9106 24.3513 62.7216 28.218 60.4997 31.7197C58.2777 35.2214 55.0825 38.2638 51.1623 40.6106C55.3371 36.0447 57.6274 30.3176 57.6437 24.4029C57.6351 23.0652 57.5101 21.7301 57.2698 20.41C57.2076 25.1098 55.7096 29.7035 52.9402 33.6874C50.1707 37.6713 46.2367 40.8916 41.5695 42.9952C44.5529 40.5592 46.9659 37.4558 48.6278 33.9172C50.2897 30.3786 51.1575 26.4964 51.1663 22.5612C51.1587 21.1974 51.0479 19.8364 50.8349 18.4907C50.781 22.925 49.6372 27.2719 47.5113 31.1211C45.3855 34.9703 42.3478 38.1948 38.685 40.4901C39.0007 40.2067 39.3112 39.9158 39.6135 39.6136C43.9965 35.2307 46.4101 29.4033 46.4101 23.2051C46.4101 17.0068 43.9964 11.1795 39.6135 6.79659C35.2307 2.41363 29.4034 -9.00194e-06 23.2051 0C17.0067 0 11.1795 2.41373 6.79659 6.79659C2.41373 11.1795 0 17.0068 0 23.2051ZM3.01695 23.7017C2.96288 21.4745 3.27377 19.2399 3.94978 17.0966L18.0059 31.1528L6.33009 34.32C4.21125 31.1051 3.10706 27.4136 3.01695 23.7017ZM5.17773 14.0809C6.11854 12.2185 7.36468 10.4721 8.91842 8.91825C11.725 6.11183 15.1588 4.30598 18.7727 3.49921L13.7251 22.6284L5.17773 14.0809ZM8.33755 36.8845L27.4852 31.6906L24.3951 43.3638C21.6343 43.5252 18.8469 43.1231 16.2205 42.1603C13.3457 40.8059 10.7533 39.0964 8.53831 37.0943C8.47202 37.024 8.40287 36.9554 8.33755 36.8845ZM16.1804 25.084L18.0298 18.0751L25.0948 16.1914L30.229 21.3256L28.3718 28.341L21.344 30.2474L16.1804 25.084ZM18.9113 14.7346L21.9952 3.0474C27.5645 2.71633 33.2457 4.67239 37.4917 8.91842C37.7168 9.14347 37.9347 9.37309 38.1469 9.60605L18.9113 14.7346ZM27.618 42.9154L32.6835 23.7799L41.2324 32.329C40.2916 34.1914 39.0456 35.9379 37.4917 37.4917C34.6801 40.3033 31.2391 42.1108 27.618 42.9154ZM28.4451 15.2981L40.1381 12.1806C43.4783 17.3085 44.2523 23.6313 42.4604 29.3133L28.4451 15.2981Z" fill="url(#paint0_linear_44_68)"/>
<path d="M61.9373 7.88055C59.7803 7.88055 57.963 8.61953 56.4851 10.0975C55.0271 11.5554 54.2981 13.363 54.2981 15.52V27.2636C54.2981 27.8428 54.4878 28.322 54.8673 28.7014C55.2468 29.0809 55.7259 29.2706 56.3051 29.2706C56.9043 29.2706 57.3937 29.0909 57.7732 28.7314C58.1527 28.3519 58.3424 27.8627 58.3424 27.2636V15.52C58.3424 14.5214 58.6919 13.6724 59.391 12.9734C60.09 12.2744 60.9387 11.9248 61.9373 11.9248C62.9359 11.9248 63.7848 12.2744 64.4838 12.9734C65.2028 13.6724 65.5623 14.5214 65.5623 15.52C65.5623 16.5186 65.2028 17.3772 64.4838 18.0962C63.7848 18.7952 62.9359 19.1448 61.9373 19.1448C61.398 19.1448 60.9288 19.3445 60.5294 19.7439C60.1299 20.1434 59.9302 20.6128 59.9302 21.1521V22.7998C59.9302 24.6372 60.5393 26.175 61.7576 27.4133C62.9959 28.6516 64.5337 29.2706 66.3711 29.2706C66.9703 29.2706 67.4597 29.0909 67.8391 28.7314C68.2186 28.3519 68.4083 27.8627 68.4083 27.2636C68.4083 26.6444 68.2186 26.155 67.8391 25.7955C67.4597 25.4161 66.9503 25.2263 66.3112 25.2263C65.6921 25.2263 65.1528 25.0067 64.6934 24.5673C64.2341 24.1079 63.9945 23.5587 63.9745 22.9196C65.6522 22.4403 67.0102 21.5215 68.0487 20.1634C69.0873 18.8053 69.6066 17.2575 69.6066 15.52C69.6066 13.363 68.8676 11.5554 67.3897 10.0975C65.9118 8.61953 64.0942 7.88055 61.9373 7.88055ZM136.623 13.992C136.064 13.992 135.574 14.1818 135.155 14.5612C134.735 14.9407 134.526 15.4102 134.526 15.9694C134.526 16.229 134.576 16.4886 134.676 16.7482L139.019 27.9825C139.439 29.061 140.068 29.6003 140.907 29.6003C141.746 29.6003 142.375 29.061 142.794 27.9825L147.138 16.7482C147.238 16.4886 147.288 16.229 147.288 15.9694C147.288 15.4102 147.078 14.9407 146.659 14.5612C146.239 14.1818 145.75 13.992 145.191 13.992C144.312 13.992 143.703 14.4313 143.363 15.3101L140.907 21.6614L138.45 15.3101C138.111 14.4313 137.502 13.992 136.623 13.992ZM78.8636 14.022C76.7066 14.022 74.8893 14.761 73.4114 16.2389C71.9534 17.6969 71.2244 19.5044 71.2244 21.6614C71.2244 23.8184 71.9534 25.6357 73.4114 27.1136C74.8893 28.5915 76.7066 29.3305 78.8636 29.3305C79.4627 29.3305 79.9521 29.1408 80.3316 28.7613C80.7111 28.3818 80.9008 27.8927 80.9008 27.2935C80.9008 26.6944 80.7111 26.2149 80.3316 25.8554C79.9521 25.476 79.4627 25.2862 78.8636 25.2862C77.865 25.2862 77.0163 24.9367 76.3173 24.2377C75.6182 23.5187 75.2687 22.66 75.2687 21.6614C75.2687 20.6628 75.6182 19.8139 76.3173 19.1148C77.0163 18.4158 77.865 18.0663 78.8636 18.0663C79.8622 18.0663 80.7111 18.4158 81.4101 19.1148C82.1291 19.8139 82.4886 20.6628 82.4886 21.6614V27.2636C82.4886 27.8627 82.6684 28.3519 83.0279 28.7314C83.4074 29.0909 83.8965 29.2706 84.4957 29.2706C85.0948 29.2706 85.5843 29.0909 85.9637 28.7314C86.3432 28.3519 86.5329 27.8627 86.5329 27.2636V21.6614C86.5329 19.5044 85.794 17.6969 84.316 16.2389C82.8381 14.761 81.0206 14.022 78.8636 14.022ZM90.1578 14.022C89.5586 14.022 89.0694 14.2117 88.69 14.5912C88.3305 14.9507 88.1507 15.4301 88.1507 16.0293C88.1507 16.6085 88.3404 17.0976 88.7199 17.4971C89.0994 17.8765 89.5786 18.0663 90.1578 18.0663H94.1724C91.6359 20.9423 90.1579 22.6299 89.7385 23.1292C87.9011 25.3062 86.9824 26.904 86.9824 27.9226C86.9824 28.8214 87.7114 29.2706 89.1693 29.2706H97.5576C98.1368 29.2706 98.616 29.0809 98.9955 28.7014C99.3749 28.322 99.5647 27.8428 99.5647 27.2636C99.5647 26.6644 99.3749 26.175 98.9955 25.7955C98.636 25.4161 98.1568 25.2263 97.5576 25.2263H93.4831C95.72 22.6899 97.188 21.0022 97.887 20.1634C99.7244 17.9665 100.643 16.3586 100.643 15.3401C100.643 14.4613 99.9241 14.022 98.4862 14.022H90.1578ZM108.882 14.022C106.725 14.022 104.907 14.761 103.429 16.2389C101.971 17.6969 101.242 19.5044 101.242 21.6614C101.242 23.8184 101.971 25.6357 103.429 27.1136C104.907 28.5915 106.725 29.3305 108.882 29.3305C109.481 29.3305 109.97 29.1408 110.35 28.7613C110.729 28.3818 110.919 27.8927 110.919 27.2935C110.919 26.6944 110.729 26.2149 110.35 25.8554C109.97 25.476 109.481 25.2862 108.882 25.2862C107.883 25.2862 107.034 24.9367 106.335 24.2377C105.636 23.5187 105.287 22.66 105.287 21.6614C105.287 20.6628 105.636 19.8139 106.335 19.1148C107.034 18.4158 107.883 18.0663 108.882 18.0663C109.88 18.0663 110.729 18.4158 111.428 19.1148C112.127 19.8139 112.477 20.6628 112.477 21.6614V28.8814C112.477 29.161 112.377 29.4006 112.177 29.6003C111.977 29.82 111.738 29.9297 111.458 29.9297H108.852C106.715 29.9297 104.907 30.6686 103.429 32.1466C101.971 33.6445 101.242 35.462 101.242 37.599C101.242 39.736 101.981 41.5436 103.459 43.0215C104.937 44.4995 106.745 45.2385 108.882 45.2385C111.019 45.2385 112.826 44.4995 114.304 43.0215C115.782 41.5436 116.521 39.736 116.521 37.599C116.521 36.9999 116.331 36.5107 115.952 36.1312C115.592 35.7518 115.113 35.562 114.514 35.562C113.935 35.562 113.445 35.7518 113.046 36.1312C112.666 36.5307 112.477 37.0198 112.477 37.599C112.477 38.5976 112.127 39.4466 111.428 40.1456C110.729 40.8446 109.88 41.1942 108.882 41.1942C107.883 41.1942 107.034 40.8446 106.335 40.1456C105.636 39.4466 105.287 38.5976 105.287 37.599C105.287 36.6004 105.636 35.7418 106.335 35.0228C107.034 34.3238 107.883 33.9742 108.882 33.9742H111.458C112.856 33.9742 114.045 33.4748 115.023 32.4762C116.022 31.4976 116.521 30.2994 116.521 28.8814V21.6614C116.521 19.5044 115.782 17.6969 114.304 16.2389C112.846 14.761 111.039 14.022 108.882 14.022ZM125.808 14.022C123.651 14.022 121.834 14.761 120.356 16.2389C118.898 17.6969 118.169 19.5044 118.169 21.6614C118.169 23.8184 118.898 25.6357 120.356 27.1136C121.834 28.5915 123.651 29.3305 125.808 29.3305C127.965 29.3305 129.783 28.5915 131.261 27.1136C132.738 25.6357 133.477 23.8184 133.477 21.6614C133.477 19.5044 132.738 17.6969 131.261 16.2389C129.783 14.761 127.965 14.022 125.808 14.022ZM156.066 14.022C153.909 14.022 152.091 14.761 150.613 16.2389C149.155 17.6969 148.426 19.5044 148.426 21.6614C148.426 23.8184 149.155 25.6357 150.613 27.1136C152.091 28.5915 153.909 29.3305 156.066 29.3305C158.223 29.3305 160.04 28.5915 161.518 27.1136C162.996 25.6357 163.735 23.8184 163.735 21.6614C163.735 19.5044 162.996 17.6969 161.518 16.2389C160.04 14.761 158.223 14.022 156.066 14.022ZM171.854 14.022C170.036 14.022 168.498 14.641 167.24 15.8793C166.002 17.1176 165.383 18.6457 165.383 20.4631V27.2636C165.383 27.8627 165.562 28.3519 165.922 28.7314C166.301 29.0909 166.791 29.2706 167.39 29.2706C167.989 29.2706 168.478 29.0909 168.858 28.7314C169.237 28.3519 169.427 27.8627 169.427 27.2636V20.4631C169.427 19.7841 169.647 19.2348 170.086 18.8154C170.546 18.376 171.115 18.1262 171.794 18.0663C173.172 17.9464 173.861 17.2676 173.861 16.0293C173.861 15.4501 173.671 14.9707 173.292 14.5912C172.912 14.2117 172.433 14.022 171.854 14.022ZM125.808 18.0663C126.807 18.0663 127.655 18.4158 128.354 19.1148C129.073 19.8139 129.433 20.6628 129.433 21.6614C129.433 22.66 129.073 23.5187 128.354 24.2377C127.655 24.9367 126.807 25.2862 125.808 25.2862C124.809 25.2862 123.961 24.9367 123.261 24.2377C122.562 23.5187 122.213 22.66 122.213 21.6614C122.213 20.6628 122.562 19.8139 123.261 19.1148C123.961 18.4158 124.809 18.0663 125.808 18.0663ZM156.066 18.0663C157.064 18.0663 157.913 18.4158 158.612 19.1148C159.331 19.8139 159.691 20.6628 159.691 21.6614C159.691 22.66 159.331 23.5187 158.612 24.2377C157.913 24.9367 157.064 25.2862 156.066 25.2862C155.067 25.2862 154.218 24.9367 153.519 24.2377C152.82 23.5187 152.471 22.66 152.471 21.6614C152.471 20.6628 152.82 19.8139 153.519 19.1148C154.218 18.4158 155.067 18.0663 156.066 18.0663Z" fill="url(#paint1_linear_44_68)"/>
<defs>
<linearGradient id="paint0_linear_44_68" x1="2.77776" y1="5.99999" x2="99.5391" y2="9.17632" gradientUnits="userSpaceOnUse">
<stop stop-color="#44CD7B"/>
<stop offset="1" stop-color="#4CD79C" stop-opacity="0.72"/>
</linearGradient>
<linearGradient id="paint1_linear_44_68" x1="59.4558" y1="12.3635" x2="238.125" y2="26.9389" gradientUnits="userSpaceOnUse">
<stop stop-color="#44CD7B"/>
<stop offset="1" stop-color="#4CD79C" stop-opacity="0.72"/>
</linearGradient>
</defs>
</svg>
