<svg width="22" height="24" viewBox="0 0 22 24" fill="none" xmlns="http://www.w3.org/2000/svg">
<path d="M19.8162 3.12105H19.5314C20.0742 2.23733 19.8738 1.0509 19.0026 0.404556C18.064 -0.291806 16.7301 -0.0676538 16.075 0.911265L14.5963 3.1211H1.89357C0.849452 3.1211 0 3.97055 0 5.01467V17.121C0 18.1651 0.849452 19.0146 1.89357 19.0146H9.24877L8.69303 21.3488H7.49357C6.71185 21.3488 6.07587 21.9847 6.07587 22.7664V23.0625H4.59722C4.33834 23.0625 4.12848 23.2724 4.12848 23.5312C4.12848 23.79 4.33834 23.9999 4.59722 23.9999H17.1126C17.3714 23.9999 17.5813 23.79 17.5813 23.5312C17.5813 23.2724 17.3714 23.0625 17.1126 23.0625H15.6339V22.7664C15.6339 21.9847 14.9979 21.3488 14.2162 21.3488H13.0167L12.461 19.0146H19.8162C20.8603 19.0146 21.7098 18.1651 21.7098 17.121V14.4572V5.01462C21.7098 3.9705 20.8603 3.12105 19.8162 3.12105ZM13.0999 11.3615C12.3671 11.8745 10.9941 11.1772 9.68292 11.8768C9.363 10.2149 9.5647 8.65186 11.2299 8.30687C11.4451 8.26201 11.6768 8.24172 11.874 8.24565C12.4377 8.66382 13.0077 9.08676 13.5698 9.5038C13.8158 10.2195 13.7235 10.925 13.0999 11.3615ZM13.5723 6.33713L14.8992 7.32158L13.8788 8.56566C13.4587 8.254 13.0976 7.98606 12.6775 7.67435C12.7648 7.54399 13.4926 6.45623 13.5723 6.33713ZM16.8542 1.43264C17.2092 0.901983 17.9333 0.778517 18.444 1.15749C18.9549 1.53652 19.0464 2.26522 18.6416 2.75885C17.9232 3.6346 16.2154 5.7168 15.4944 6.59592L14.0942 5.5571L16.8542 1.43264ZM14.6964 22.7664V23.0625H7.01335V22.7664C7.01335 22.5017 7.22878 22.2863 7.49357 22.2863H14.2162C14.481 22.2863 14.6964 22.5017 14.6964 22.7664ZM12.053 21.3488H9.65672L10.2125 19.0146H11.4973L12.053 21.3488ZM20.7723 17.121C20.7723 17.6482 20.3434 18.0771 19.8162 18.0771C19.0721 18.0771 2.73023 18.0771 1.89362 18.0771C1.36643 18.0771 0.937528 17.6482 0.937528 17.121V14.9259H2.277C2.53589 14.9259 2.74574 14.716 2.74574 14.4572C2.74574 14.1983 2.53589 13.9884 2.277 13.9884H0.937435V5.01462C0.937435 4.48743 1.36633 4.05853 1.89353 4.05853H13.969C13.5199 4.72963 12.2099 6.68746 11.7949 7.30756C10.8763 7.31586 9.9592 7.63587 9.35883 8.33673C8.54186 9.29038 8.39834 10.7889 8.93223 12.7905C9.0235 13.1327 9.45056 13.2554 9.70898 13.0085C10.921 11.8504 12.4305 13.1137 13.7823 12.0195C14.6075 11.3516 14.8028 10.2897 14.4916 9.29671C14.9122 8.78391 18.3664 4.57255 18.788 4.05853H19.8161C20.3433 4.05853 20.7722 4.48743 20.7722 5.01462V13.9884H6.02684C5.76795 13.9884 5.55809 14.1983 5.55809 14.4571C5.55809 14.716 5.76795 14.9259 6.02684 14.9259H20.7723V17.121Z" fill="#44CD7B"/>
<path d="M4.06141 13.9975C3.83576 14.0436 3.68454 14.2386 3.68454 14.4573C3.68454 14.7505 3.95262 14.9751 4.2447 14.9167C4.50424 14.864 4.66235 14.6139 4.61266 14.3655C4.56049 14.1091 4.31177 13.9471 4.06141 13.9975Z" fill="#44CD7B"/>
</svg>
