<svg width="24" height="24" viewBox="0 0 24 24" fill="none" xmlns="http://www.w3.org/2000/svg">
<path fill-rule="evenodd" clip-rule="evenodd" d="M0 9.66667C0 4.328 4.328 0 9.66667 0H14.3333C19.672 0 24 4.328 24 9.66667C24 15.0053 19.672 19.3333 14.3333 19.3333H13.8667V24C13.8667 24 0 21.6667 0 9.66667ZM14.4607 4.32133C15.1473 4.77733 15.6653 5.51667 15.6653 6.508C15.6653 7.56 15.2407 8.33333 14.5533 8.80667C14.282 8.99037 13.9825 9.12863 13.6667 9.216V10.2373C13.6667 10.3687 13.6408 10.4987 13.5905 10.62C13.5403 10.7413 13.4666 10.8516 13.3738 10.9444C13.2809 11.0373 13.1707 11.111 13.0494 11.1612C12.928 11.2115 12.798 11.2373 12.6667 11.2373C12.5353 11.2373 12.4053 11.2115 12.284 11.1612C12.1627 11.111 12.0524 11.0373 11.9596 10.9444C11.8667 10.8516 11.793 10.7413 11.7428 10.62C11.6925 10.4987 11.6667 10.3687 11.6667 10.2373V8.37267C11.6666 8.11895 11.763 7.8747 11.9363 7.68939C12.1096 7.50409 12.3468 7.39158 12.6 7.37467C12.9693 7.35 13.2493 7.27667 13.4187 7.16C13.487 7.11469 13.5422 7.05214 13.5787 6.97867C13.6187 6.89867 13.6653 6.756 13.6653 6.50733C13.6653 6.29867 13.5833 6.13933 13.3533 5.986C13.092 5.81267 12.672 5.68467 12.1673 5.66867C11.6687 5.65267 11.184 5.75 10.8273 5.92267C10.47 6.096 10.3393 6.29067 10.302 6.434C10.2718 6.56371 10.2159 6.68608 10.1377 6.79391C10.0595 6.90174 9.96057 6.99287 9.84669 7.06194C9.7328 7.131 9.60626 7.17663 9.4745 7.19612C9.34274 7.21562 9.20841 7.2086 9.0794 7.17547C8.95039 7.14234 8.8293 7.08377 8.72324 7.0032C8.61717 6.92263 8.52827 6.82168 8.46176 6.70629C8.39524 6.59089 8.35245 6.46337 8.33589 6.33121C8.31933 6.19904 8.32934 6.06491 8.36533 5.93667C8.59467 5.04267 9.264 4.45867 9.95533 4.12333C10.6487 3.78667 11.464 3.64467 12.2313 3.66933C12.9927 3.69333 13.806 3.88533 14.4607 4.32133ZM12.6667 15.3333C13.0203 15.3333 13.3594 15.1929 13.6095 14.9428C13.8595 14.6928 14 14.3536 14 14C14 13.6464 13.8595 13.3072 13.6095 13.0572C13.3594 12.8071 13.0203 12.6667 12.6667 12.6667C12.313 12.6667 11.9739 12.8071 11.7239 13.0572C11.4738 13.3072 11.3333 13.6464 11.3333 14C11.3333 14.3536 11.4738 14.6928 11.7239 14.9428C11.9739 15.1929 12.313 15.3333 12.6667 15.3333Z" fill="#44CD7B"/>
</svg>
