<svg width="22" height="24" viewBox="0 0 22 24" fill="none" xmlns="http://www.w3.org/2000/svg">
<g clip-path="url(#clip0_67_13)">
<path d="M21.36 6.50851L21.3593 6.48983C21.3483 6.2593 21.3411 6.01541 21.3367 5.74405C21.3162 4.42075 20.2156 3.32615 18.8309 3.25217C15.944 3.09818 13.7106 2.1984 11.8024 0.420638L11.7861 0.405806C11.1637 -0.139663 10.2248 -0.139663 9.60221 0.405806L9.58592 0.420638C7.67769 2.1984 5.44436 3.09818 2.5574 3.25236C1.17292 3.32615 0.0721548 4.42075 0.0516568 5.74423C0.0474422 6.01376 0.0399709 6.25766 0.0290514 6.48983L0.027902 6.53323C-0.0282281 9.347 -0.0979597 12.8489 1.12771 16.0274C1.80165 17.7753 2.82234 19.2947 4.16122 20.5437C5.68613 21.966 7.68344 23.0953 10.0976 23.8998C10.1762 23.926 10.2578 23.9472 10.3409 23.9632C10.4581 23.9855 10.5762 23.9967 10.6942 23.9967C10.8122 23.9967 10.9304 23.9855 11.0474 23.9632C11.1306 23.9472 11.2127 23.9258 11.2917 23.8994C13.703 23.0934 15.6982 21.9637 17.2217 20.5415C18.56 19.2922 19.5807 17.7724 20.2552 16.0241C21.4855 12.8361 21.416 9.32759 21.36 6.50851ZM18.8729 15.5369C17.5802 18.887 14.9413 21.1877 10.8055 22.5701C10.7907 22.5749 10.775 22.5791 10.7587 22.5822C10.716 22.5902 10.6725 22.5902 10.6292 22.582C10.6131 22.5789 10.5974 22.5749 10.5829 22.5701C6.44264 21.1902 3.80203 18.8908 2.51027 15.5405C1.38058 12.6107 1.44457 9.39607 1.50108 6.56015L1.50146 6.5444C1.51296 6.30069 1.52062 6.04544 1.52483 5.76492C1.53403 5.17734 2.02368 4.69119 2.63958 4.65842C4.27329 4.57126 5.70854 4.2695 7.02731 3.73594C8.34436 3.2031 9.51408 2.452 10.603 1.4398C10.6583 1.39512 10.7302 1.39494 10.7853 1.4398C11.8744 2.452 13.0442 3.2031 14.361 3.73594C15.6798 4.2695 17.115 4.57126 18.7489 4.65842C19.3648 4.69119 19.8545 5.17734 19.8635 5.7651C19.8679 6.04709 19.8756 6.30233 19.887 6.5444C19.9434 9.38362 20.0058 12.6008 18.8729 15.5369Z" fill="#44CD7B"/>
<path d="M10.691 6.01923C7.24044 6.01923 4.43335 8.70245 4.43335 12.0004C4.43335 15.2985 7.24044 17.9817 10.691 17.9817C14.1414 17.9817 16.9487 15.2985 16.9487 12.0004C16.9487 8.70245 14.1414 6.01923 10.691 6.01923ZM10.691 16.5732C8.05289 16.5732 5.90672 14.5219 5.90672 12.0004C5.90672 9.47882 8.05289 7.42749 10.691 7.42749C13.3289 7.42749 15.4751 9.47882 15.4751 12.0004C15.4751 14.5219 13.3289 16.5732 10.691 16.5732Z" fill="#44CD7B"/>
<path d="M12.4895 10.1435L9.58296 12.9216L8.79408 12.1675C8.50634 11.8925 8.03986 11.8925 7.75212 12.1675C7.46457 12.4426 7.46457 12.8884 7.75212 13.1633L9.06208 14.4153C9.20595 14.5528 9.39446 14.6215 9.58296 14.6215C9.77147 14.6215 9.95998 14.5528 10.1038 14.4153L13.5314 11.1392C13.819 10.8642 13.819 10.4183 13.5314 10.1435C13.2437 9.86827 12.7772 9.86827 12.4895 10.1435Z" fill="#44CD7B"/>
</g>
<defs>
<clipPath id="clip0_67_13">
<rect width="21.3333" height="24" fill="white"/>
</clipPath>
</defs>
</svg>
