<svg width="19" height="24" viewBox="0 0 19 24" fill="none" xmlns="http://www.w3.org/2000/svg">
<path d="M0 11.5823H1.27275V7.7625C1.27245 6.7431 1.47301 5.73362 1.86296 4.79175C2.25291 3.84987 2.82462 2.99405 3.54541 2.27319C4.2662 1.55233 5.12196 0.980541 6.0638 0.5905C7.00564 0.200458 8.01509 -0.000195781 9.0345 1.30598e-06C10.0541 -0.000590253 11.0637 0.199789 12.0058 0.589682C12.9478 0.979574 13.8038 1.55133 14.5247 2.27227C15.2457 2.9932 15.8174 3.84916 16.2073 4.79122C16.5972 5.73328 16.7976 6.74295 16.797 7.7625V11.5478C16.7812 11.556 16.761 11.5748 16.7423 11.583L16.722 11.6033H16.7153L16.695 11.622H16.668L16.6478 11.6423H16.629L16.6087 11.649H16.6005L16.5923 11.661L16.581 11.6693H16.5728L16.5608 11.6775L16.5525 11.6895L16.5457 11.6963L16.5338 11.7045L16.5068 11.7248L16.4865 11.736L16.4595 11.7563L16.4205 11.772L16.3927 11.7908L16.3778 11.8028L16.3658 11.811L16.3387 11.8298L16.3185 11.838L16.2712 11.865L16.2525 11.877L16.2367 11.8853L16.218 11.8973H16.2098L16.1505 11.9243H16.1318L16.065 11.9595H16.0568L16.05 11.9715L16.0177 11.9865L16.0028 11.9985L15.9705 12.0188L15.9555 12.0255H15.9435L15.9165 12.0458L15.8962 12.054L15.8775 12.0653C15.8617 12.0735 15.8348 12.081 15.8145 12.093L15.7958 12.1013L15.7755 12.1125L15.7402 12.1283L15.7013 12.1485L15.6075 12.1875L15.5887 12.1943L15.5527 12.2145L15.534 12.2265C13.9867 12.9645 11.514 13.7415 6.82725 14.0775C3.46425 14.3198 1.42125 15.8003 0.1005 17.5778L0 11.5823ZM4.83975 11.5823H13.2105V7.7625C13.2115 7.21274 13.1039 6.66819 12.894 6.16009C12.6841 5.65199 12.3759 5.19033 11.9872 4.80159C11.5984 4.41285 11.1368 4.10467 10.6287 3.89475C10.1206 3.68482 9.57601 3.57726 9.02625 3.57825C8.47654 3.57796 7.93216 3.68596 7.4242 3.8961C6.91624 4.10623 6.45466 4.41439 6.06582 4.80295C5.67698 5.19151 5.36849 5.65287 5.15799 6.16068C4.94749 6.66849 4.8391 7.21279 4.839 7.7625L4.83975 11.5823ZM18.0615 13.0433V24H2.60025C4.30725 23.055 5.5695 23.148 7.6785 23.2148C10.5427 23.3085 13.7063 22.1085 15.2603 20.5155C16.815 18.9255 15.1245 20.1405 13.362 20.5898C11.5995 21.039 8.19 21.09 5.90925 20.4878C13.0815 20.5815 15.882 18.27 17.4645 16.1798C19.0463 14.1015 16.7805 15.816 15.3075 16.5345C13.8398 17.2575 11.2725 17.7653 8.44425 17.3903C12.714 17.3783 15.9645 15.2453 18.0533 13.0425L18.0615 13.0433Z" fill="#44CD7B"/>
</svg>
