<svg width="50" height="50" viewBox="0 0 50 50" fill="none" xmlns="http://www.w3.org/2000/svg">
<path d="M49.0216 46.0941H31.5425C31.0031 46.0941 30.566 46.5313 30.566 47.0705C30.566 47.6098 31.0032 48.047 31.5425 48.047H49.0216C49.5609 48.047 49.998 47.6098 49.998 47.0705C49.998 46.5313 49.5608 46.0941 49.0216 46.0941Z" fill="#4AFFA8"/>
<path d="M18.3599 46.0941H0.978418C0.439062 46.0941 0.00195312 46.5313 0.00195312 47.0705C0.00195312 47.6098 0.43916 48.047 0.978418 48.047H18.3599C18.8992 48.047 19.3363 47.6098 19.3363 47.0705C19.3363 46.5313 18.8991 46.0941 18.3599 46.0941Z" fill="#4AFFA8"/>
<path d="M25.386 19.9761H17.8185C17.2791 19.9761 16.842 20.4133 16.842 20.9525C16.842 21.4919 17.2792 21.929 17.8185 21.929H25.386C25.9254 21.929 26.3625 21.4918 26.3625 20.9525C26.3625 20.4133 25.9253 19.9761 25.386 19.9761Z" fill="#4AFFA8"/>
<path d="M32.9866 20.262C32.805 20.0804 32.553 19.9759 32.2963 19.9759C32.0385 19.9759 31.7865 20.0804 31.606 20.262C31.4233 20.4437 31.3198 20.6956 31.3198 20.9524C31.3198 21.2092 31.4233 21.4611 31.606 21.6427C31.7876 21.8243 32.0386 21.9288 32.2963 21.9288C32.5531 21.9288 32.8051 21.8243 32.9866 21.6427C33.1682 21.461 33.2728 21.2091 33.2728 20.9524C33.2728 20.6956 33.1683 20.4437 32.9866 20.262Z" fill="#4AFFA8"/>
<path d="M29.5757 20.262C29.3931 20.0804 29.1421 19.9759 28.8844 19.9759C28.6275 19.9759 28.3756 20.0804 28.194 20.262C28.0124 20.4437 27.9079 20.6956 27.9079 20.9524C27.9079 21.2102 28.0124 21.4611 28.194 21.6427C28.3767 21.8243 28.6276 21.9288 28.8844 21.9288C29.1411 21.9288 29.3932 21.8243 29.5757 21.6427C29.7573 21.461 29.8608 21.2091 29.8608 20.9524C29.8608 20.6956 29.7573 20.4437 29.5757 20.262Z" fill="#4AFFA8"/>
<path d="M25.386 27.788H17.8185C17.2791 27.788 16.842 28.2252 16.842 28.7644C16.842 29.3037 17.2792 29.7409 17.8185 29.7409H25.386C25.9254 29.7409 26.3625 29.3037 26.3625 28.7644C26.3625 28.2252 25.9253 27.788 25.386 27.788Z" fill="#4AFFA8"/>
<path d="M32.9866 28.0739C32.805 27.8923 32.553 27.7878 32.2963 27.7878C32.0385 27.7878 31.7875 27.8923 31.606 28.0739C31.4233 28.2556 31.3198 28.5075 31.3198 28.7642C31.3198 29.0221 31.4233 29.273 31.606 29.4546C31.7876 29.6362 32.0386 29.7407 32.2963 29.7407C32.5531 29.7407 32.8051 29.6362 32.9866 29.4546C33.1682 29.2729 33.2728 29.021 33.2728 28.7642C33.2728 28.5075 33.1683 28.2556 32.9866 28.0739Z" fill="#4AFFA8"/>
<path d="M29.5757 28.0739C29.3931 27.8923 29.1421 27.7878 28.8844 27.7878C28.6275 27.7878 28.3756 27.8923 28.194 28.0739C28.0124 28.2556 27.9079 28.5075 27.9079 28.7642C27.9079 29.021 28.0124 29.273 28.194 29.4546C28.3757 29.6362 28.6276 29.7407 28.8844 29.7407C29.1422 29.7407 29.3932 29.6362 29.5757 29.4546C29.7573 29.2729 29.8608 29.021 29.8608 28.7642C29.8608 28.5075 29.7573 28.2556 29.5757 28.0739Z" fill="#4AFFA8"/>
<path d="M25.386 35.5999H17.8185C17.2791 35.5999 16.842 36.0371 16.842 36.5764C16.842 37.1156 17.2792 37.5528 17.8185 37.5528H25.386C25.9254 37.5528 26.3625 37.1156 26.3625 36.5764C26.3625 36.0371 25.9253 35.5999 25.386 35.5999Z" fill="#4AFFA8"/>
<path d="M32.9866 35.8859C32.804 35.7042 32.553 35.5997 32.2963 35.5997C32.0385 35.5997 31.7875 35.7042 31.605 35.8859C31.4233 36.0675 31.3198 36.3195 31.3198 36.5762C31.3198 36.8329 31.4233 37.085 31.605 37.2665C31.7876 37.4482 32.0386 37.5527 32.2963 37.5527C32.5531 37.5527 32.8051 37.4482 32.9866 37.2665C33.1682 37.0849 33.2728 36.8329 33.2728 36.5762C33.2728 36.3195 33.1683 36.0675 32.9866 35.8859Z" fill="#4AFFA8"/>
<path d="M29.5747 35.8859C29.3931 35.7042 29.1421 35.5997 28.8844 35.5997C28.6275 35.5997 28.3756 35.7042 28.194 35.8859C28.0125 36.0675 27.9079 36.3195 27.9079 36.5762C27.9079 36.8329 28.0124 37.085 28.194 37.2665C28.3757 37.4482 28.6276 37.5527 28.8844 37.5527C29.1422 37.5527 29.3932 37.4482 29.5747 37.2665C29.7573 37.0849 29.8608 36.8329 29.8608 36.5762C29.8608 36.3195 29.7573 36.0675 29.5747 35.8859Z" fill="#4AFFA8"/>
<path d="M37.7067 28.904C37.7067 27.3085 36.9375 25.8895 35.7504 24.998C36.9374 24.1065 37.7067 22.6876 37.7067 21.0921C37.7067 18.3999 35.5165 16.2097 32.8243 16.2097H17.2005C14.5083 16.2097 12.3181 18.3999 12.3181 21.0921C12.3181 22.6876 13.0873 24.1065 14.2744 24.998C13.0874 25.8895 12.3181 27.3085 12.3181 28.904C12.3181 30.4995 13.0873 31.9184 14.2744 32.8099C13.0874 33.7015 12.3181 35.1204 12.3181 36.7159C12.3181 39.4081 14.5083 41.5983 17.2005 41.5983H24.0235V44.309C22.887 44.7121 22.0706 45.7975 22.0706 47.0705C22.0705 48.6858 23.3847 50 25 50C26.6153 50 27.9295 48.6858 27.9295 47.0705C27.9295 45.7975 27.1131 44.7121 25.9766 44.309V41.5983H32.8244C35.5166 41.5983 37.7068 39.4081 37.7068 36.7159C37.7068 35.1204 36.9376 33.7015 35.7505 32.8099C36.9374 31.9184 37.7067 30.4995 37.7067 28.904ZM14.2709 21.0922C14.2709 19.4768 15.5851 18.1627 17.2004 18.1627H32.8242C34.4396 18.1627 35.7537 19.4768 35.7537 21.0922C35.7537 22.7075 34.4396 24.0217 32.8242 24.0217H17.2004C15.5851 24.0216 14.2709 22.7074 14.2709 21.0922ZM25 48.0471C24.4615 48.0471 24.0235 47.609 24.0235 47.0706C24.0235 46.5321 24.4616 46.0941 25 46.0941C25.5384 46.0941 25.9765 46.5322 25.9765 47.0706C25.9765 47.609 25.5385 48.0471 25 48.0471ZM35.7537 36.7159C35.7537 38.3312 34.4396 39.6454 32.8242 39.6454H17.2004C15.5851 39.6454 14.2709 38.3312 14.2709 36.7159C14.2709 35.1006 15.5851 33.7864 17.2004 33.7864H32.8242C34.4396 33.7865 35.7537 35.1007 35.7537 36.7159ZM32.8242 31.8335H17.2004C15.5851 31.8335 14.2709 30.5193 14.2709 28.904C14.2709 27.2887 15.5851 25.9745 17.2004 25.9745H32.8242C34.4396 25.9745 35.7537 27.2887 35.7537 28.904C35.7537 30.5193 34.4396 31.8335 32.8242 31.8335Z" fill="#4AFFA8"/>
<path d="M47.9017 15.1206C46.6478 13.3006 44.9353 11.8782 42.9301 10.9855C40.4724 4.39658 34.166 0 27.0995 0C22.9877 0 19.0253 1.49482 15.9425 4.20898C13.1237 6.69053 11.2185 10.0252 10.5132 13.6792C10.3616 13.6724 10.2104 13.6689 10.0597 13.6689C4.51377 13.6689 0.00185394 18.1809 0.00185394 23.7268C0.00185394 26.1401 0.869628 28.474 2.44531 30.2983C4.00439 32.1033 6.15439 33.2986 8.49941 33.6642C8.55039 33.6721 8.60098 33.676 8.65098 33.676C9.12392 33.676 9.53945 33.3316 9.61465 32.8498C9.69775 32.3169 9.33301 31.8177 8.80019 31.7346C4.83369 31.1163 1.95478 27.7486 1.95478 23.7269C1.95478 19.2578 5.59053 15.622 10.0597 15.622C10.4359 15.622 10.8175 15.6486 11.1938 15.7014C11.4513 15.7373 11.712 15.6693 11.9188 15.5125C12.1259 15.3557 12.2618 15.1229 12.2967 14.8656C13.2951 7.5042 19.659 1.95303 27.0994 1.95303C33.4797 1.95303 39.159 6.00478 41.2316 12.0353C41.3238 12.3036 41.5282 12.5185 41.7915 12.6241C45.5903 14.1484 48.045 17.7782 48.045 21.8714C48.045 26.5826 44.7008 30.6863 40.0932 31.6292C39.5647 31.7373 39.2242 32.2533 39.3323 32.7816C39.4404 33.3101 39.9562 33.6505 40.4848 33.5425C45.9972 32.4146 49.998 27.5061 49.998 21.8714C49.998 19.4456 49.2731 17.1112 47.9017 15.1206Z" fill="#4AFFA8"/>
</svg>
