<svg width="50" height="50" viewBox="0 0 50 50" fill="none" xmlns="http://www.w3.org/2000/svg">
<path d="M45.1904 24.6695C45.0931 24.1512 44.6546 23.7465 44.1365 23.671C43.6144 23.5948 43.078 23.8683 42.8399 24.3407C42.6031 24.8106 42.6785 25.3886 43.0403 25.7745C43.395 26.1529 43.9589 26.2742 44.4384 26.0768C44.9848 25.852 45.308 25.2492 45.1904 24.6695Z" fill="#44CD7B"/>
<path d="M43.4526 29.4607C42.7901 29.2517 42.0838 29.6193 41.875 30.2817C41.0137 33.0112 39.5458 35.4263 37.5118 37.4604C34.1605 40.8117 29.7047 42.6575 24.965 42.6575C20.2253 42.6575 15.7694 40.8118 12.418 37.4604C5.49962 30.5421 5.49962 19.2851 12.418 12.3668C15.7694 9.0153 20.2253 7.16963 24.965 7.16963C29.7047 7.16963 34.1605 9.0153 37.5118 12.3668C39.5229 14.3779 41.0342 16.8682 41.8822 19.5683C42.0901 20.231 42.7962 20.5995 43.4588 20.3914C44.1214 20.1833 44.49 19.4772 44.2817 18.8146C43.3129 15.7295 41.5869 12.8848 39.2903 10.5881C35.4639 6.76153 30.3764 4.65427 24.965 4.65427C19.5535 4.65427 14.466 6.76153 10.6394 10.5881C2.74043 18.4872 2.74043 31.3399 10.6394 39.239C14.466 43.0654 19.5534 45.1728 24.965 45.1728C30.3765 45.1728 35.4639 43.0656 39.2903 39.239C41.5803 36.949 43.3035 34.1134 44.2736 31.0386C44.4825 30.3761 44.115 29.6697 43.4526 29.4607Z" fill="#44CD7B"/>
<path d="M28.3116 18.4633L23.4365 23.3384L21.6158 21.5174C19.9898 19.8916 17.3444 19.8916 15.7186 21.5174C14.0927 23.1433 14.0927 25.7888 15.7186 27.4146L21.2525 32.9484C21.8547 33.5506 22.6456 33.8517 23.4367 33.8517C24.2277 33.8517 25.0188 33.5506 25.621 32.9484L34.2089 24.3604C35.8348 22.7345 35.8348 20.0891 34.2089 18.4632C34.2089 18.4632 34.2089 18.4632 34.2089 18.4631C32.5828 16.8373 29.9374 16.8374 28.3116 18.4633ZM32.4303 22.5819L23.8423 31.17C23.6187 31.3937 23.2547 31.3937 23.031 31.1701L17.4972 25.6363C16.852 24.9911 16.852 23.9413 17.4972 23.2962C17.8198 22.9737 18.2435 22.8122 18.6673 22.8122C19.091 22.8122 19.5148 22.9737 19.8373 23.296L22.5474 26.0062C22.7833 26.2421 23.1032 26.3746 23.4367 26.3746C23.7702 26.3746 24.0901 26.242 24.326 26.0062L30.0902 20.2419C30.7354 19.5967 31.7853 19.5967 32.4303 20.2417C33.0755 20.8869 33.0755 21.9367 32.4303 22.5819Z" fill="#44CD7B"/>
<path d="M25 0C11.2078 7.2928e-07 0 11.2078 0 25C0 38.7922 11.2078 50 25 50C38.7922 50 50 38.7922 50 25C50 11.2078 38.7922 0 25 0ZM25 2.51476C37.4331 2.51476 47.4852 12.5669 47.4852 25C47.4852 37.4331 37.4331 47.4852 25 47.4852C12.5669 47.4852 2.51476 37.4331 2.51476 25C2.51476 12.5669 12.5669 2.51476 25 2.51476Z" fill="#44CD7B"/>
</svg>
