<svg width="18" height="18" viewBox="0 0 18 18" fill="none" xmlns="http://www.w3.org/2000/svg">
<path fill-rule="evenodd" clip-rule="evenodd" d="M10.783 0.58493C10.266 0.205296 9.64132 0.000579834 8.9999 0.000579834C8.35847 0.000579834 7.73379 0.205296 7.21677 0.58493L6.17277 1.34993C6.00083 1.47629 5.80091 1.55927 5.59002 1.5918L4.30865 1.78868C3.67518 1.88606 3.08927 2.18292 2.63608 2.63611C2.18289 3.0893 1.88603 3.67521 1.78865 4.30868L1.59177 5.59118C1.55924 5.80207 1.47626 6.00199 1.3499 6.17393L0.584899 7.21793C0.205265 7.73494 0.000549316 8.35963 0.000549316 9.00105C0.000549316 9.64248 0.205265 10.2672 0.584899 10.7842L1.3499 11.8282C1.47702 12.0003 1.55915 12.1994 1.59177 12.4109L1.78865 13.6912C1.88603 14.3246 2.18289 14.9106 2.63608 15.3637C3.08927 15.8169 3.67518 16.1138 4.30865 16.2112L5.5889 16.4081C5.79927 16.4407 5.99952 16.5228 6.17165 16.6499L7.21565 17.4149C7.73266 17.7946 8.35735 17.9993 8.99877 17.9993C9.6402 17.9993 10.2649 17.7946 10.7819 17.4149L11.8259 16.6499C11.9977 16.5233 12.1977 16.4402 12.4086 16.4081L13.6889 16.2112C14.3227 16.114 14.909 15.817 15.3624 15.3636C15.8159 14.9102 16.1128 14.3239 16.21 13.6901L16.4069 12.4098C16.4395 12.1994 16.5216 11.9992 16.6488 11.8271L17.4138 10.7831C17.7934 10.266 17.9981 9.64135 17.9981 8.99993C17.9981 8.3585 17.7934 7.73382 17.4138 7.2168L16.6488 6.1728C16.5224 6.00084 16.4395 5.80093 16.4069 5.59005L16.2111 4.30868C16.1138 3.67521 15.8169 3.0893 15.3637 2.63611C14.9105 2.18292 14.3246 1.88606 13.6911 1.78868L12.4109 1.5918C12.2 1.55923 12.0001 1.47626 11.8281 1.34993L10.783 0.58493ZM8.21577 1.94393C8.68265 1.6008 9.31827 1.6008 9.78402 1.94393L10.828 2.70893C11.2195 2.99693 11.674 3.1848 12.1555 3.25905L13.4335 3.4548C14.0073 3.54255 14.4562 3.99255 14.5439 4.56518L14.7396 5.84431C14.8139 6.32468 15.0018 6.77918 15.2898 7.1718L16.0548 8.21468C16.3979 8.68155 16.3979 9.31718 16.0548 9.78293L15.2898 10.8269C15.002 11.2186 14.8133 11.674 14.7396 12.1544L14.5439 13.4324C14.5013 13.7117 14.3706 13.97 14.1709 14.1698C13.9711 14.3695 13.7128 14.5002 13.4335 14.5428L12.1544 14.7386C11.674 14.8122 11.2185 15.0009 10.8269 15.2887L9.78402 16.0537C9.31715 16.3968 8.68152 16.3968 8.21577 16.0537L7.17177 15.2887C6.78012 15.0009 6.32467 14.8122 5.84427 14.7386L4.56627 14.5428C4.28701 14.5002 4.02867 14.3695 3.82892 14.1698C3.62917 13.97 3.49847 13.7117 3.4559 13.4324L3.26015 12.1533C3.18653 11.6729 2.99779 11.2175 2.71002 10.8258L1.94502 9.78293C1.77814 9.55555 1.68815 9.28086 1.68815 8.99881C1.68815 8.71675 1.77814 8.44206 1.94502 8.21468L2.71002 7.17068C2.99802 6.77918 3.1859 6.32468 3.26015 5.84318L3.4559 4.56518C3.54365 3.99143 3.99365 3.54255 4.56627 3.4548L5.8454 3.25905C6.32579 3.18544 6.78125 2.99669 7.1729 2.70893L8.21577 1.94393ZM12.6899 7.62743C12.8389 7.46748 12.9201 7.25593 12.9162 7.03734C12.9124 6.81875 12.8238 6.61019 12.6692 6.45561C12.5146 6.30102 12.3061 6.21246 12.0875 6.20861C11.8689 6.20475 11.6573 6.28589 11.4974 6.43493L7.8749 10.0574L6.5024 8.68493C6.34245 8.53589 6.1309 8.45475 5.91231 8.45861C5.69372 8.46246 5.48516 8.55101 5.33057 8.7056C5.17598 8.86019 5.08743 9.06875 5.08358 9.28734C5.07972 9.50593 5.16086 9.71748 5.3099 9.87743L7.27865 11.8462C7.43685 12.0042 7.6513 12.0929 7.8749 12.0929C8.09849 12.0929 8.31295 12.0042 8.47115 11.8462L12.6899 7.62743Z" fill="#44CD7B"/>
</svg>
