<svg width="27" height="28" viewBox="0 0 27 28" fill="none" xmlns="http://www.w3.org/2000/svg">
<path d="M25.3059 17.8565C25.0564 17.8565 24.8202 17.9134 24.6095 18.0148C24.4982 17.8094 24.342 17.6316 24.1547 17.4928C24.8104 15.945 25.1561 14.2572 25.1561 12.5781C25.1561 10.1158 24.4438 7.73027 23.0961 5.67944C22.9302 5.42706 22.5911 5.35689 22.3387 5.52276C22.0863 5.68863 22.0162 6.02774 22.182 6.28018C23.4122 8.15201 24.0624 10.3298 24.0624 12.5781C24.0624 14.1527 23.73 15.736 23.0992 17.1802C22.8911 17.1929 22.6934 17.2451 22.5141 17.3296C22.4064 17.1232 22.2537 16.9439 22.0699 16.8026C22.6587 15.4773 22.9687 14.0281 22.9687 12.5781C22.9687 6.84865 18.3075 2.18749 12.5781 2.18749C6.84865 2.18749 2.18749 6.84865 2.18749 12.5781C2.18749 14.4451 2.68897 16.2765 3.63769 17.8744C3.7399 18.0465 3.92173 18.1422 4.10844 18.1422C4.20332 18.1422 4.29957 18.1174 4.38712 18.0655C4.64683 17.9113 4.73236 17.5757 4.57815 17.316C3.72973 15.887 3.28124 14.2487 3.28124 12.5781C3.28124 7.4518 7.4518 3.28124 12.5781 3.28124C17.7043 3.28124 21.8749 7.4518 21.8749 12.5781C21.8749 13.9175 21.5792 15.2563 21.0184 16.473C20.8679 16.4798 20.7224 16.506 20.5854 16.5515V14.3355C20.5854 13.4269 19.8397 12.6876 18.9231 12.6876C18.0065 12.6876 17.2608 13.4269 17.2608 14.3355V20.1728C16.9346 20.3697 16.7167 20.6323 16.6051 20.9568C15.3534 21.5578 13.9665 21.8749 12.5781 21.8749C10.908 21.8749 9.26971 21.4265 7.8404 20.5782C7.58064 20.424 7.24508 20.5097 7.09103 20.7694C6.93692 21.0291 7.02245 21.3646 7.28221 21.5188C8.88034 22.4673 10.7117 22.9687 12.5781 22.9687C13.956 22.9687 15.3324 22.6886 16.6031 22.1557C16.6103 22.1855 16.6167 22.2148 16.625 22.2451C16.6258 22.248 16.6266 22.2508 16.6274 22.2537L16.9051 23.215C15.527 23.7769 14.0738 24.0624 12.5781 24.0624C6.24562 24.0624 1.09375 18.9105 1.09375 12.5781C1.09375 6.24562 6.24567 1.09375 12.5781 1.09375C14.8269 1.09375 17.0048 1.74403 18.8764 2.97433C19.1288 3.1402 19.4678 3.07009 19.6338 2.81776C19.7996 2.56538 19.7296 2.22632 19.4772 2.06034C17.4268 0.712411 15.0411 0 12.5781 0C9.21836 0 6.05973 1.30834 3.68406 3.68401C1.30839 6.05968 0 9.21831 0 12.5781C0 15.9378 1.30834 19.0964 3.68401 21.4721C6.05968 23.8479 9.21836 25.1562 12.5781 25.1562C14.1776 25.1562 15.7328 24.8584 17.2104 24.2715L17.6063 25.6417V26.7192C17.6063 27.4254 18.1852 28 18.8968 28H24.474C25.1856 28 25.7645 27.4254 25.7645 26.7192V25.7493L26.3268 25.0135C26.8225 24.3649 26.9062 23.8927 26.9062 23.0796V19.4432C26.9062 18.5683 26.1883 17.8565 25.3059 17.8565ZM25.8124 23.0796C25.8124 23.785 25.7369 23.9842 25.4579 24.3493L24.7831 25.2322C24.7102 25.3276 24.6707 25.4443 24.6707 25.5643V26.7192C24.6707 26.8206 24.5807 26.9063 24.474 26.9063H18.8968C18.7902 26.9063 18.7 26.8206 18.7 26.7192V25.5643C18.7 25.5129 18.6928 25.4618 18.6785 25.4125L17.6794 21.9546C17.501 21.294 17.7002 21.1805 17.8457 21.0976L18.0784 20.9651C18.249 20.8678 18.3545 20.6864 18.3545 20.49V14.3355C18.3545 14.0299 18.6095 13.7814 18.923 13.7814C19.2365 13.7814 19.4915 14.0299 19.4915 14.3355V19.1948C19.4915 19.4968 19.7364 19.7417 20.0384 19.7417C20.3404 19.7417 20.5853 19.4968 20.5853 19.1948V18.0567C20.5853 17.7849 20.8125 17.5638 21.0919 17.5638C21.3712 17.5638 21.5985 17.7849 21.5985 18.0567V18.7636C21.5985 19.0656 21.8434 19.3105 22.1453 19.3105C22.4473 19.3105 22.6922 19.0656 22.6922 18.7636C22.6922 18.4918 22.9195 18.2706 23.1989 18.2706C23.4782 18.2706 23.7055 18.4918 23.7055 18.7636V19.4432C23.7055 19.7452 23.9503 19.9901 24.2523 19.9901C24.5543 19.9901 24.7992 19.7452 24.7992 19.4432C24.7992 19.1714 25.0264 18.9502 25.3058 18.9502C25.5852 18.9502 25.8124 19.1714 25.8124 19.4432V23.0796Z" fill="#232529"/>
<path d="M21.0858 4.61791C21.2258 4.61791 21.3657 4.56448 21.4725 4.45773C21.686 4.24417 21.686 3.89789 21.4725 3.68428L21.4722 3.68401C21.2586 3.4704 20.9125 3.47067 20.6989 3.68417C20.4854 3.89773 20.4855 4.24412 20.699 4.45773C20.8059 4.56453 20.9458 4.61791 21.0858 4.61791Z" fill="#232529"/>
<path d="M5.61809 20.0858C5.74158 20.0858 5.86566 20.0443 5.96787 19.9591C6.19991 19.7657 6.23125 19.4209 6.03793 19.1889L6.03766 19.1886C5.84423 18.9565 5.49948 18.9254 5.26755 19.1187C5.03556 19.3121 5.00433 19.6571 5.19765 19.8891C5.30588 20.0189 5.46141 20.0858 5.61809 20.0858Z" fill="#232529"/>
<path d="M10.2484 16.1799C10.6098 16.5413 11.0904 16.7404 11.6017 16.7404C12.113 16.7404 12.5936 16.5413 12.9551 16.1799L17.452 11.683C17.8134 11.3215 18.0125 10.8409 18.0125 10.3296C18.0125 9.81836 17.8134 9.33777 17.452 8.97628C16.7057 8.23007 15.4915 8.23007 14.7453 8.97628L11.6018 12.1198L10.411 10.9291C9.66478 10.1829 8.45056 10.1829 7.70435 10.9291C7.34292 11.2906 7.1438 11.7712 7.1438 12.2825C7.1438 12.7937 7.34292 13.2743 7.70435 13.6358L10.2484 16.1799ZM8.47763 11.7025C8.63759 11.5426 8.84759 11.4627 9.05764 11.4627C9.26764 11.4627 9.47775 11.5426 9.63755 11.7025L11.215 13.28C11.3175 13.3825 11.4566 13.4402 11.6016 13.4402C11.7467 13.4402 11.8858 13.3825 11.9883 13.28L15.5186 9.74968C15.8384 9.42986 16.3586 9.42986 16.6785 9.74968C16.8334 9.90455 16.9187 10.1106 16.9187 10.3296C16.9187 10.5486 16.8334 10.7546 16.6785 10.9095L12.1816 15.4065C11.8618 15.7263 11.3416 15.7263 11.0217 15.4065L8.47763 12.8624C8.15787 12.5426 8.15787 12.0223 8.47763 11.7025Z" fill="#232529"/>
</svg>
